# WaveFront *.obj file (generated by Autodesk ATF)

mtllib af5edcbe-bc63-4d46-9a1d-a48da1e2a78f.mtl

g Case

v 134.924410 44.736779 -17.634417
v 134.924410 41.271271 10.589880
v -133.175590 41.271271 10.589880
v -133.175590 44.736779 -17.634417
v 134.924410 -48.408430 -0.508184
v 134.924410 -46.305593 -17.634417
v -133.175590 -46.305593 -17.634417
v -133.175590 -48.408430 -0.508184
v 137.924410 45.520666 11.115753
v 137.924410 49.419096 -20.634417
v -136.175590 49.419096 -20.634417
v -136.175590 45.520666 11.115753
v 137.924410 -51.385720 -0.876630
v -136.175590 -51.385720 -0.876630
v 137.924410 -48.959769 -20.634417
v -136.175590 -48.959769 -20.634417
vt -2.843912 3.900000 0.000000
vt -0.000286 3.900000 0.000000
vt -2.843912 30.710000 0.000000
vt -0.000286 30.710000 0.000000
vt -1.904953 3.900000 0.000000
vt -0.179468 3.900000 0.000000
vt -1.904953 30.710000 0.000000
vt -0.179468 30.710000 0.000000
vt -9.443326 3.900000 0.000000
vt -0.339088 3.900000 0.000000
vt -9.443326 30.710000 0.000000
vt -0.339088 30.710000 0.000000
vt -1.279637 4.120306 0.000000
vt -1.279637 -4.983931 0.000000
vt 0.432986 4.330590 0.000000
vt 1.542793 -4.637380 0.000000
vt 4.120306 -1.279637 0.000000
vt 4.330590 0.432986 0.000000
vt -4.983931 -1.279637 0.000000
vt -4.637380 1.542793 0.000000
vt -0.007962 3.600000 0.000000
vt 3.190899 3.600000 0.000000
vt -0.007962 31.010000 0.000000
vt 3.190899 31.010000 0.000000
vt 10.036380 3.900000 0.000000
vt 1.000000 3.900000 0.000000
vt 0.700000 3.600000 0.000000
vt 1.000000 30.710000 0.000000
vt 0.700000 31.010000 0.000000
vt 10.036380 30.710000 0.000000
vt 10.464561 31.010000 0.000000
vt 10.464561 3.600000 0.000000
vt -0.085949 3.600000 0.000000
vt 1.904667 3.600000 0.000000
vt -0.085949 31.010000 0.000000
vt 1.904667 31.010000 0.000000
vt -0.129143 3.600000 0.000000
vt 9.708743 3.600000 0.000000
vt -0.129143 31.010000 0.000000
vt 9.708743 31.010000 0.000000
vt 1.579637 4.385724 0.000000
vt -0.396141 4.628319 0.000000
vt 1.579637 -5.452163 0.000000
vt -1.595380 -5.062320 0.000000
vt -4.385724 -1.579637 0.000000
vt 5.452163 -1.579637 0.000000
vt -4.628319 0.396141 0.000000
vt 5.062320 1.595380 0.000000
vn 0.000000 -0.099255 -0.012187
vn 0.000000 -0.099255 -0.012187
vn 0.000000 -0.099255 -0.012187
vn 0.000000 -0.099255 -0.012187
vn -0.000000 0.099255 0.012187
vn -0.000000 0.099255 0.012187
vn -0.000000 0.099255 0.012187
vn -0.000000 0.099255 0.012187
vn -0.000000 -0.000000 0.100000
vn -0.000000 -0.000000 0.100000
vn -0.000000 -0.000000 0.100000
vn -0.000000 -0.000000 0.100000
vn 0.100000 0.000000 0.000000
vn 0.100000 0.000000 0.000000
vn 0.100000 0.000000 0.000000
vn 0.100000 0.000000 0.000000
vn -0.100000 -0.000000 -0.000000
vn -0.100000 -0.000000 -0.000000
vn -0.100000 -0.000000 -0.000000
vn -0.100000 -0.000000 -0.000000
vn -0.000000 0.099255 0.012187
vn -0.000000 0.099255 0.012187
vn -0.000000 0.099255 0.012187
vn -0.000000 0.099255 0.012187
vn 0.000000 -0.012282 0.099243
vn 0.000000 -0.012282 0.099243
vn 0.000000 -0.012282 0.099243
vn 0.000000 -0.012282 0.099243
vn 0.000000 -0.012282 0.099243
vn 0.000000 -0.012282 0.099243
vn 0.000000 -0.012282 0.099243
vn 0.000000 -0.012282 0.099243
vn 0.000000 -0.099255 -0.012187
vn 0.000000 -0.099255 -0.012187
vn 0.000000 -0.099255 -0.012187
vn 0.000000 -0.099255 -0.012187
vn 0.000000 0.000000 -0.100000
vn 0.000000 0.000000 -0.100000
vn 0.000000 0.000000 -0.100000
vn 0.000000 0.000000 -0.100000
vn -0.100000 -0.000000 -0.000000
vn -0.100000 -0.000000 -0.000000
vn -0.100000 -0.000000 -0.000000
vn -0.100000 -0.000000 -0.000000
vn 0.100000 0.000000 0.000000
vn 0.100000 0.000000 0.000000
vn 0.100000 0.000000 0.000000
vn 0.100000 0.000000 0.000000
usemtl Steel_-_Satin
f 1/1/1 2/2/2 4/3/3
f 4/3/3 2/2/2 3/4/4
f 5/5/5 6/6/6 8/7/7
f 8/7/7 6/6/6 7/8/8
f 6/9/9 1/10/10 7/11/11
f 7/11/11 1/10/10 4/12/12
f 7/13/13 4/14/14 8/15/15
f 8/15/15 4/14/14 3/16/16
f 6/17/17 5/18/18 1/19/19
f 1/19/19 5/18/18 2/20/20
f 9/21/21 10/22/22 12/23/23
f 12/23/23 10/22/22 11/24/24
f 2/25/25 5/26/26 13/27/27
f 13/27/27 5/26/26 8/28/28
f 13/27/27 8/28/28 14/29/29
f 14/29/29 8/28/28 3/30/30
f 14/29/29 3/30/30 12/31/31
f 12/31/31 3/30/30 9/32/32
f 9/32/32 3/30/30 2/25/25
f 9/32/32 2/25/25 13/27/27
f 15/33/33 13/34/34 16/35/35
f 16/35/35 13/34/34 14/36/36
f 10/37/37 15/38/38 11/39/39
f 11/39/39 15/38/38 16/40/40
f 16/41/41 14/42/42 11/43/43
f 11/43/43 14/42/42 12/44/44
f 15/45/45 10/46/46 13/47/47
f 13/47/47 10/46/46 9/48/48

# 16 vertices
# 48 texture params
# 48 normals
# 28 facets

# 1 groups
